inDegrees=yes
name=ik_S46_A07_T02
DataType=double
version=3
OpenSimVersion=4.3-2021-08-27-4bc7ad9
endheader
time	pelvis_tilt	pelvis_list	pelvis_rotation	pelvis_tx	pelvis_ty	pelvis_tz	hip_flexion_r	hip_adduction_r	hip_rotation_r	knee_angle_r	knee_angle_r_beta	ankle_angle_r	subtalar_angle_r	mtp_angle_r	hip_flexion_l	hip_adduction_l	hip_rotation_l	knee_angle_l	knee_angle_l_beta	ankle_angle_l	subtalar_angle_l	mtp_angle_l	lumbar_extension	lumbar_bending	lumbar_rotation	arm_flex_r	arm_add_r	arm_rot_r	elbow_flex_r	pro_sup_r	wrist_flex_r	wrist_dev_r	arm_flex_l	arm_add_l	arm_rot_l	elbow_flex_l	pro_sup_l	wrist_flex_l	wrist_dev_l
21.35999999999963	-10.31688304918759	-3.917108323317005	25.9250648866905	0	0.9399999999999999	0	38.7888694689989	-10.24295403470772	-9.946364969208757	47.62300091155423	0.8311781655868822	0	0	0	38.7888694689989	-10.24295403470772	-9.946364969208757	47.62300091155423	0.8311781655868822	0	0	0	-9.005712926854121	-2.980279057556549	7.498169049377405	63.17417073518574	-8.170193365345979	0.04169586737849429	61.65772821984707	96.9724282893222	0	0	12.89459864989547	-4.847156585168778	8.478695352153752	59.33763628609655	118.9670063123582	0	0
21.37999999999963	-10.32697156682812	-3.930757361095653	25.93363978019596	0	0.9399999999999999	0	38.79047005887129	-10.24273798216818	-9.946395620142287	47.62428759074201	0.8312006223751259	0	0	0	38.79047005887129	-10.24273798216818	-9.946395620142287	47.62428759074201	0.8312006223751259	0	0	0	-9.021338753791197	-2.986718859675213	7.494093548296359	63.13444130317566	-8.093306744519589	-0.01383483731254183	61.48479459429698	97.11540154442642	0	0	12.87781138479661	-4.867249812292973	8.478110862373889	59.3655297132231	118.9778622251319	0	0
21.39999999999963	-10.34030020669099	-3.928919287223678	25.9440850586562	0	0.9399999999999999	0	38.78876327419735	-10.24300424730135	-9.946360118885119	47.62295816751103	0.8311774195625927	0	0	0	38.78876327419735	-10.24300424730135	-9.946360118885119	47.62295816751103	0.8311774195625927	0	0	0	-9.032671124287161	-2.978564150888482	7.489671658812721	63.09111900192616	-8.030913410781309	-0.02630151052852522	61.37096166585334	97.25407321923802	0	0	12.85954923870471	-4.850172513015774	8.460623442996706	59.3915942689774	118.9772553123939	0	0
21.41999999999963	-10.35377290631299	-3.93305424979657	25.96043586922687	0	0.9399999999999999	0	38.78800536990693	-10.24313514117544	-9.946343285664424	47.6223854875092	0.8311674244110004	0	0	0	38.78800536990693	-10.24313514117544	-9.946343285664424	47.6223854875092	0.8311674244110004	0	0	0	-9.046323575118922	-2.977169340191292	7.493874210837735	63.05787230383051	-8.00202934467527	-0.05829827757912955	61.34150875508046	97.299887074555	0	0	12.88271531546581	-4.840788253230493	8.47591655802974	59.38699059113283	118.9933862291712	0	0
21.43999999999963	-10.36720479456953	-3.946231600068578	25.97053615747825	0	0.9399999999999999	0	38.79311809943977	-10.24235961819277	-9.946447229051548	47.62640508689623	0.8312375796549152	0	0	0	38.79311809943977	-10.24235961819277	-9.946447229051548	47.62640508689623	0.8312375796549152	0	0	0	-9.065205107618691	-2.980929229981871	7.491455827767842	63.00704595620277	-7.981480818061854	-0.1060760591560866	61.27442128857093	97.4150297993438	0	0	12.90610183563893	-4.846182354121003	8.46971678587175	59.40500694934892	118.981188925274	0	0
21.45999999999963	-10.37980593391365	-3.947772275213343	25.98722488835919	0	0.9399999999999999	0	38.80010672067225	-10.24158953267274	-9.946568280294578	47.63213803467655	0.8313376384695268	0	0	0	38.80010672067225	-10.24158953267274	-9.946568280294578	47.63213803467655	0.8313376384695268	0	0	0	-9.078622837019248	-2.974387144362447	7.491646252898994	62.98245896154567	-7.951823902026507	-0.1583542028799222	61.28381298403141	97.43646560475375	0	0	12.90762230799301	-4.828028687314693	8.468061472142432	59.42539507291659	118.9705004379327	0	0
21.47999999999963	-10.39035228474165	-3.950031794137258	25.99587573435245	0	0.9399999999999999	0	38.80118827427736	-10.24156340650448	-9.94658000000115	47.63310985434823	0.8313545999225331	0	0	0	38.80118827427736	-10.24156340650448	-9.94658000000115	47.63310985434823	0.8313545999225331	0	0	0	-9.089472715981321	-2.971059692392971	7.4909344654675	62.95903854571424	-7.916615982503878	-0.2056073958321399	61.26219966626463	97.48585402426203	0	0	12.91101414085468	-4.817482749764054	8.454665545948885	59.42705152142502	118.9886298424432	0	0
21.49999999999963	-10.40190766212011	-3.966373316031697	26.01917201720872	0	0.9399999999999999	0	38.80399478627488	-10.24150508949719	-9.946609917156836	47.63563524553675	0.8313986763136738	0	0	0	38.80399478627488	-10.24150508949719	-9.946609917156836	47.63563524553675	0.8313986763136738	0	0	0	-9.108122675575766	-2.978322685642731	7.484009546863286	62.99578563006276	-7.875893488324355	-0.297440053185718	61.22520752125981	97.63603862602038	0	0	12.9264502864071	-4.820907168843551	8.439022200018437	59.45185230686133	119.0289596164224	0	0
21.51999999999963	-10.39722196103783	-3.965668562811585	26.01721497115571	0	0.9399999999999999	0	38.81931400983625	-10.23997995217775	-9.946862744362562	47.64837519061215	0.8316210303017627	0	0	0	38.81931400983625	-10.23997995217775	-9.946862744362562	47.64837519061215	0.8316210303017627	0	0	0	-9.106110206177954	-2.975653106806645	7.487299282624369	62.99685806014974	-7.900007701474446	-0.2958110111709875	61.23668353690615	97.74848618144321	0	0	12.91198043340158	-4.829465927704847	8.438951464156803	59.4728926000053	119.0082435757812	0	0
21.53999999999963	-10.40634341992331	-3.960431274425803	25.999253205008	0	0.9399999999999999	0	38.82484461955083	-10.24032993697793	-9.946885649180549	47.65381248161847	0.831715928932212	0	0	0	38.82484461955083	-10.24032993697793	-9.946885649180549	47.65381248161847	0.831715928932212	0	0	0	-9.11051342511888	-2.973076504367365	7.53284346623991	63.0320614384085	-7.911947890066069	-0.3828868686558982	61.14933073775932	98.09656248774519	0	0	12.89565255976326	-4.798857010725523	8.456810237404349	59.46798927807305	119.0656920663884	0	0
21.55999999999963	-10.409403694239	-3.959734331132848	25.98618292911755	0	0.9399999999999999	0	38.82182774885717	-10.24099221218827	-9.946807982328453	47.65166128162625	0.8316783834094791	0	0	0	38.82182774885717	-10.24099221218827	-9.946807982328453	47.65166128162625	0.8316783834094791	0	0	0	-9.110330701896808	-2.978631564189645	7.568006662995955	63.06376481953433	-7.927375422420646	-0.4826462775474867	61.020050124598	98.33843089489913	0	0	12.91396273697573	-4.806667967223483	8.493040522497642	59.47065927884789	119.0609292832925	0	0
21.57999999999963	-10.40340245548288	-3.963252600725268	26.0074626831934	0	0.9399999999999999	0	38.839380585074	-10.23922015994512	-9.94709939295363	47.66625623433654	0.8319331133884464	0	0	0	38.839380585074	-10.23922015994512	-9.94709939295363	47.66625623433654	0.8319331133884464	0	0	0	-9.109356174005407	-2.979919327537594	7.572663751990363	63.05523002687352	-7.941148176230926	-0.5046700101426118	60.98105901554991	98.38819167826192	0	0	12.90669307375979	-4.799349736952814	8.542127032988031	59.50509796605483	119.0024581062772	0	0
